<?xml version="1.0" encoding="UTF-8" standalone="no"?>
<svg width="400" height="300" viewBox="0 0 400 300" xmlns="http://www.w3.org/2000/svg">
  <defs>
    <linearGradient id="grad1" x1="0%" y1="0%" x2="100%" y2="100%">
      <stop offset="0%" style="stop-color:#FF4A8D;stop-opacity:1" />
      <stop offset="100%" style="stop-color:#FF77AA;stop-opacity:1" />
    </linearGradient>
  </defs>
  <rect width="400" height="300" fill="url(#grad1)" rx="12" ry="12"/>
  
  <!-- Corporate Header -->
  <rect x="20" y="20" width="360" height="50" rx="4" ry="4" fill="rgba(255,255,255,0.15)"/>
  <rect x="30" y="35" width="120" height="20" rx="2" ry="2" fill="white" opacity="0.9"/>
  <rect x="240" y="40" width="30" height="10" rx="2" ry="2" fill="white" opacity="0.8"/>
  <rect x="280" y="40" width="30" height="10" rx="2" ry="2" fill="white" opacity="0.8"/>
  <rect x="320" y="40" width="50" height="10" rx="5" ry="5" fill="white" opacity="0.9"/>
  
  <!-- Hero Section -->
  <rect x="60" y="100" width="280" height="20" rx="2" ry="2" fill="white" opacity="0.9"/>
  <rect x="90" y="130" width="220" height="10" rx="2" ry="2" fill="white" opacity="0.6"/>
  <rect x="90" y="150" width="220" height="10" rx="2" ry="2" fill="white" opacity="0.6"/>
  <rect x="150" y="180" width="100" height="30" rx="15" ry="15" fill="white" opacity="0.9"/>
  
  <!-- Features -->
  <circle cx="70" cy="240" r="15" fill="white" opacity="0.7"/>
  <rect x="100" y="235" width="80" height="10" rx="2" ry="2" fill="white" opacity="0.9"/>
  
  <circle cx="220" cy="240" r="15" fill="white" opacity="0.7"/>
  <rect x="250" y="235" width="80" height="10" rx="2" ry="2" fill="white" opacity="0.9"/>
  
  <circle cx="70" cy="280" r="15" fill="white" opacity="0.7"/>
  <rect x="100" y="275" width="80" height="10" rx="2" ry="2" fill="white" opacity="0.9"/>
  
  <circle cx="220" cy="280" r="15" fill="white" opacity="0.7"/>
  <rect x="250" y="275" width="80" height="10" rx="2" ry="2" fill="white" opacity="0.9"/>
</svg>