<?xml version="1.0" encoding="UTF-8" standalone="no"?>
<svg width="400" height="300" viewBox="0 0 400 300" xmlns="http://www.w3.org/2000/svg">
  <defs>
    <linearGradient id="grad1" x1="0%" y1="0%" x2="100%" y2="100%">
      <stop offset="0%" style="stop-color:#5B45FF;stop-opacity:1" />
      <stop offset="100%" style="stop-color:#00D2FF;stop-opacity:1" />
    </linearGradient>
  </defs>
  <rect width="400" height="300" fill="url(#grad1)" rx="12" ry="12"/>
  
  <!-- Header -->
  <rect x="20" y="20" width="360" height="40" rx="5" ry="5" fill="rgba(255,255,255,0.2)"/>
  <circle cx="40" cy="40" r="10" fill="white" opacity="0.8"/>
  <rect x="60" y="35" width="80" height="10" rx="2" ry="2" fill="white" opacity="0.8"/>
  <rect x="250" y="35" width="30" height="10" rx="2" ry="2" fill="white" opacity="0.8"/>
  <rect x="290" y="35" width="30" height="10" rx="2" ry="2" fill="white" opacity="0.8"/>
  <rect x="330" y="35" width="30" height="10" rx="2" ry="2" fill="white" opacity="0.8"/>
  
  <!-- Hero Section -->
  <rect x="20" y="80" width="180" height="15" rx="2" ry="2" fill="white" opacity="0.9"/>
  <rect x="20" y="105" width="230" height="10" rx="2" ry="2" fill="white" opacity="0.6"/>
  <rect x="20" y="125" width="230" height="10" rx="2" ry="2" fill="white" opacity="0.6"/>
  <rect x="20" y="155" width="100" height="30" rx="15" ry="15" fill="white" opacity="0.9"/>
  
  <!-- Product Grid -->
  <rect x="20" y="205" width="80" height="75" rx="5" ry="5" fill="white" opacity="0.3"/>
  <rect x="110" y="205" width="80" height="75" rx="5" ry="5" fill="white" opacity="0.3"/>
  <rect x="200" y="205" width="80" height="75" rx="5" ry="5" fill="white" opacity="0.3"/>
  <rect x="290" y="205" width="80" height="75" rx="5" ry="5" fill="white" opacity="0.3"/>
  
  <!-- Product Details -->
  <rect x="20" y="285" width="80" height="8" rx="2" ry="2" fill="white" opacity="0.7"/>
  <rect x="110" y="285" width="80" height="8" rx="2" ry="2" fill="white" opacity="0.7"/>
  <rect x="200" y="285" width="80" height="8" rx="2" ry="2" fill="white" opacity="0.7"/>
  <rect x="290" y="285" width="80" height="8" rx="2" ry="2" fill="white" opacity="0.7"/>
</svg>