<?xml version="1.0" encoding="UTF-8" standalone="no"?>
<svg width="400" height="300" viewBox="0 0 400 300" xmlns="http://www.w3.org/2000/svg">
  <defs>
    <linearGradient id="grad1" x1="0%" y1="0%" x2="100%" y2="100%">
      <stop offset="0%" style="stop-color:#FF77AA;stop-opacity:1" />
      <stop offset="100%" style="stop-color:#E62B70;stop-opacity:1" />
    </linearGradient>
  </defs>
  <rect width="400" height="300" fill="url(#grad1)" rx="12" ry="12"/>
  
  <!-- Health App Header -->
  <rect x="20" y="20" width="360" height="50" rx="5" ry="5" fill="rgba(255,255,255,0.15)"/>
  <rect x="30" y="35" width="90" height="20" rx="10" ry="10" fill="white" opacity="0.9"/>
  <rect x="260" y="40" width="30" height="10" rx="2" ry="2" fill="white" opacity="0.8"/>
  <rect x="300" y="40" width="30" height="10" rx="2" ry="2" fill="white" opacity="0.8"/>
  <rect x="340" y="40" width="30" height="10" rx="2" ry="2" fill="white" opacity="0.8"/>
  
  <!-- App Stats and Wellness Stats -->
  <rect x="20" y="90" width="170" height="120" rx="10" ry="10" fill="rgba(255,255,255,0.2)"/>
  <circle cx="105" cy="130" r="30" fill="white" opacity="0.6" stroke="white" stroke-width="4"/>
  <rect x="60" y="170" width="90" height="10" rx="2" ry="2" fill="white" opacity="0.9"/>
  <rect x="75" y="185" width="60" height="8" rx="2" ry="2" fill="white" opacity="0.6"/>
  
  <!-- Fitness Tracking -->
  <rect x="210" y="90" width="170" height="120" rx="10" ry="10" fill="rgba(255,255,255,0.2)"/>
  <polyline points="225,170 240,130 255,160 270,150 285,160 300,120 315,140 330,130 345,150 360,125" 
          stroke="white" stroke-width="3" fill="none"/>
  <rect x="250" y="170" width="90" height="10" rx="2" ry="2" fill="white" opacity="0.9"/>
  <rect x="265" y="185" width="60" height="8" rx="2" ry="2" fill="white" opacity="0.6"/>
  
  <!-- Features Section -->
  <rect x="20" y="230" width="80" height="50" rx="5" ry="5" fill="rgba(255,255,255,0.2)"/>
  <rect x="110" y="230" width="80" height="50" rx="5" ry="5" fill="rgba(255,255,255,0.2)"/>
  <rect x="200" y="230" width="80" height="50" rx="5" ry="5" fill="rgba(255,255,255,0.2)"/>
  <rect x="290" y="230" width="80" height="50" rx="5" ry="5" fill="rgba(255,255,255,0.2)"/>
  
  <!-- Feature Names -->
  <rect x="30" y="245" width="60" height="8" rx="2" ry="2" fill="white" opacity="0.9"/>
  <rect x="120" y="245" width="60" height="8" rx="2" ry="2" fill="white" opacity="0.9"/>
  <rect x="210" y="245" width="60" height="8" rx="2" ry="2" fill="white" opacity="0.9"/>
  <rect x="300" y="245" width="60" height="8" rx="2" ry="2" fill="white" opacity="0.9"/>
</svg>