<?xml version="1.0" encoding="UTF-8" standalone="no"?>
<svg width="400" height="300" viewBox="0 0 400 300" xmlns="http://www.w3.org/2000/svg">
  <defs>
    <linearGradient id="grad1" x1="0%" y1="0%" x2="100%" y2="100%">
      <stop offset="0%" style="stop-color:#7B6BFF;stop-opacity:1" />
      <stop offset="100%" style="stop-color:#5B45FF;stop-opacity:1" />
    </linearGradient>
  </defs>
  <rect width="400" height="300" fill="url(#grad1)" rx="12" ry="12"/>
  
  <!-- Real Estate Header -->
  <rect x="20" y="20" width="360" height="40" rx="5" ry="5" fill="rgba(255,255,255,0.2)"/>
  <rect x="30" y="30" width="100" height="20" rx="2" ry="2" fill="white" opacity="0.9"/>
  <rect x="240" y="35" width="30" height="10" rx="2" ry="2" fill="white" opacity="0.8"/>
  <rect x="280" y="35" width="30" height="10" rx="2" ry="2" fill="white" opacity="0.8"/>
  <rect x="320" y="35" width="30" height="10" rx="2" ry="2" fill="white" opacity="0.8"/>
  
  <!-- Search Bar -->
  <rect x="60" y="80" width="280" height="40" rx="20" ry="20" fill="white" opacity="0.3" stroke="white" stroke-width="2"/>
  <circle cx="80" cy="100" r="10" fill="white" opacity="0.6"/>
  
  <!-- Featured Properties -->
  <rect x="20" y="140" width="150" height="15" rx="2" ry="2" fill="white" opacity="0.9"/>
  
  <!-- Property Cards -->
  <rect x="20" y="165" width="170" height="120" rx="8" ry="8" fill="rgba(255,255,255,0.2)"/>
  <rect x="20" y="165" width="170" height="70" rx="8" ry="8" fill="white" opacity="0.3"/>
  <rect x="30" y="245" width="80" height="12" rx="2" ry="2" fill="white" opacity="0.9"/>
  <rect x="30" y="265" width="120" height="8" rx="2" ry="2" fill="white" opacity="0.6"/>
  
  <rect x="210" y="165" width="170" height="120" rx="8" ry="8" fill="rgba(255,255,255,0.2)"/>
  <rect x="210" y="165" width="170" height="70" rx="8" ry="8" fill="white" opacity="0.3"/>
  <rect x="220" y="245" width="80" height="12" rx="2" ry="2" fill="white" opacity="0.9"/>
  <rect x="220" y="265" width="120" height="8" rx="2" ry="2" fill="white" opacity="0.6"/>
</svg>