<?xml version="1.0" encoding="UTF-8" standalone="no"?>
<svg width="400" height="300" viewBox="0 0 400 300" xmlns="http://www.w3.org/2000/svg">
  <defs>
    <linearGradient id="grad1" x1="0%" y1="0%" x2="100%" y2="100%">
      <stop offset="0%" style="stop-color:#00D2FF;stop-opacity:1" />
      <stop offset="100%" style="stop-color:#00A6DB;stop-opacity:1" />
    </linearGradient>
  </defs>
  <rect width="400" height="300" fill="url(#grad1)" rx="12" ry="12"/>
  
  <!-- Restaurant Header -->
  <rect x="20" y="20" width="360" height="40" rx="5" ry="5" fill="rgba(255,255,255,0.2)"/>
  <rect x="40" y="30" width="100" height="20" rx="2" ry="2" fill="white" opacity="0.8"/>
  <rect x="250" y="35" width="30" height="10" rx="2" ry="2" fill="white" opacity="0.8"/>
  <rect x="290" y="35" width="30" height="10" rx="2" ry="2" fill="white" opacity="0.8"/>
  <rect x="330" y="35" width="30" height="10" rx="2" ry="2" fill="white" opacity="0.8"/>
  
  <!-- Hero with food image and CTA -->
  <rect x="100" y="80" width="200" height="25" rx="2" ry="2" fill="white" opacity="0.9"/>
  <rect x="150" y="115" width="100" height="10" rx="2" ry="2" fill="white" opacity="0.6"/>
  <rect x="130" y="135" width="140" height="30" rx="15" ry="15" fill="white" opacity="0.9"/>
  
  <!-- Menu Section -->
  <rect x="20" y="190" width="100" height="15" rx="2" ry="2" fill="white" opacity="0.8"/>
  
  <!-- Menu Items -->
  <rect x="20" y="220" width="80" height="60" rx="5" ry="5" fill="white" opacity="0.3"/>
  <rect x="110" y="220" width="80" height="60" rx="5" ry="5" fill="white" opacity="0.3"/>
  <rect x="200" y="220" width="80" height="60" rx="5" ry="5" fill="white" opacity="0.3"/>
  <rect x="290" y="220" width="80" height="60" rx="5" ry="5" fill="white" opacity="0.3"/>
  
  <!-- Food Item Details -->
  <rect x="20" y="285" width="60" height="8" rx="2" ry="2" fill="white" opacity="0.7"/>
  <rect x="110" y="285" width="60" height="8" rx="2" ry="2" fill="white" opacity="0.7"/>
  <rect x="200" y="285" width="60" height="8" rx="2" ry="2" fill="white" opacity="0.7"/>
  <rect x="290" y="285" width="60" height="8" rx="2" ry="2" fill="white" opacity="0.7"/>
</svg>